<svg width="50" height="50" viewBox="0 0 50 50" fill="none" xmlns="http://www.w3.org/2000/svg">
<mask id="mask0_227_300" style="mask-type:alpha" maskUnits="userSpaceOnUse" x="0" y="0" width="50" height="50">
<rect width="50" height="50" fill="#D9D9D9"/>
</mask>
<g mask="url(#mask0_227_300)">
<path d="M12.1875 35.625C13.9583 34.2708 15.9375 33.2031 18.125 32.4218C20.3125 31.6406 22.6041 31.25 25 31.25C27.3958 31.25 29.6875 31.6406 31.875 32.4218C34.0625 33.2031 36.0416 34.2708 37.8125 35.625C39.0277 34.2013 39.9739 32.5868 40.651 30.7812C41.3281 28.9757 41.6666 27.0486 41.6666 25C41.6666 20.3819 40.0434 16.4496 36.7968 13.2031C33.5503 9.95656 29.618 8.33329 25 8.33329C20.3819 8.33329 16.4496 9.95656 13.2031 13.2031C9.95656 16.4496 8.33329 20.3819 8.33329 25C8.33329 27.0486 8.67183 28.9757 9.34892 30.7812C10.026 32.5868 10.9722 34.2013 12.1875 35.625ZM19.8177 24.9739C18.4114 23.5677 17.7083 21.8402 17.7083 19.7916C17.7083 17.743 18.4114 16.0156 19.8177 14.6093C21.2239 13.2031 22.9513 12.5 25 12.5C27.0486 12.5 28.776 13.2031 30.1823 14.6093C31.5885 16.0156 32.2916 17.743 32.2916 19.7916C32.2916 21.8402 31.5885 23.5677 30.1823 24.9739C28.776 26.3802 27.0486 27.0833 25 27.0833C22.9513 27.0833 21.2239 26.3802 19.8177 24.9739ZM25 45.8333C22.118 45.8333 19.4097 45.2864 16.875 44.1927C14.3402 43.0989 12.1354 41.6145 10.2604 39.7395C8.38538 37.8645 6.901 35.6597 5.80725 33.125C4.7135 30.5902 4.16663 27.8819 4.16663 25C4.16663 22.118 4.7135 19.4097 5.80725 16.875C6.901 14.3402 8.38538 12.1354 10.2604 10.2604C12.1354 8.38538 14.3402 6.901 16.875 5.80725C19.4097 4.7135 22.118 4.16663 25 4.16663C27.8819 4.16663 30.5902 4.7135 33.125 5.80725C35.6597 6.901 37.8645 8.38538 39.7395 10.2604C41.6145 12.1354 43.0989 14.3402 44.1927 16.875C45.2864 19.4097 45.8333 22.118 45.8333 25C45.8333 27.8819 45.2864 30.5902 44.1927 33.125C43.0989 35.6597 41.6145 37.8645 39.7395 39.7395C37.8645 41.6145 35.6597 43.0989 33.125 44.1927C30.5902 45.2864 27.8819 45.8333 25 45.8333ZM30.2083 40.8593C31.8402 40.3211 33.3333 39.5486 34.6875 38.5416C33.3333 37.5347 31.8402 36.7621 30.2083 36.2239C28.5763 35.6857 26.8402 35.4166 25 35.4166C23.1597 35.4166 21.4236 35.6857 19.7916 36.2239C18.1597 36.7621 16.6666 37.5347 15.3125 38.5416C16.6666 39.5486 18.1597 40.3211 19.7916 40.8593C21.4236 41.3975 23.1597 41.6666 25 41.6666C26.8402 41.6666 28.5763 41.3975 30.2083 40.8593ZM27.2395 22.0312C27.8298 21.4409 28.125 20.6944 28.125 19.7916C28.125 18.8888 27.8298 18.1423 27.2395 17.552C26.6493 16.9618 25.9027 16.6666 25 16.6666C24.0972 16.6666 23.3507 16.9618 22.7604 17.552C22.1701 18.1423 21.875 18.8888 21.875 19.7916C21.875 20.6944 22.1701 21.4409 22.7604 22.0312C23.3507 22.6215 24.0972 22.9166 25 22.9166C25.9027 22.9166 26.6493 22.6215 27.2395 22.0312Z" fill="#939393"/>
</g>
</svg>
