<svg width="83" height="11" viewBox="0 0 83 11" fill="none" xmlns="http://www.w3.org/2000/svg">
<path d="M-2.6077e-06 5.56805H9.708V6.12005H-2.6077e-06V5.56805ZM4.608 5.90405H5.256V8.48405H4.608V5.90405ZM1.308 9.88805H8.628V10.4401H1.308V9.88805ZM1.308 7.36805H1.944V10.0561H1.308V7.36805ZM4.836 0.312051C5.588 0.312051 6.24 0.40005 6.792 0.57605C7.344 0.74405 7.772 0.98405 8.076 1.29605C8.38 1.60805 8.532 1.98405 8.532 2.42405C8.532 2.86405 8.38 3.24005 8.076 3.55205C7.772 3.86405 7.344 4.10805 6.792 4.28405C6.24 4.45205 5.588 4.53605 4.836 4.53605C4.1 4.53605 3.452 4.45205 2.892 4.28405C2.34 4.10805 1.912 3.86405 1.608 3.55205C1.304 3.24005 1.152 2.86405 1.152 2.42405C1.152 1.98405 1.304 1.60805 1.608 1.29605C1.912 0.98405 2.34 0.74405 2.892 0.57605C3.452 0.40005 4.1 0.312051 4.836 0.312051ZM4.836 0.864051C4.244 0.864051 3.72 0.928051 3.264 1.05605C2.808 1.18405 2.452 1.36805 2.196 1.60805C1.94 1.84005 1.812 2.11205 1.812 2.42405C1.812 2.74405 1.94 3.02005 2.196 3.25205C2.452 3.48405 2.808 3.66405 3.264 3.79205C3.72 3.92005 4.244 3.98405 4.836 3.98405C5.444 3.98405 5.972 3.92005 6.42 3.79205C6.876 3.66405 7.228 3.48405 7.476 3.25205C7.732 3.02005 7.86 2.74405 7.86 2.42405C7.86 2.11205 7.732 1.84005 7.476 1.60805C7.228 1.36805 6.876 1.18405 6.42 1.05605C5.972 0.928051 5.444 0.864051 4.836 0.864051ZM16.0071 1.64405H19.3311V2.18405H16.0071V1.64405ZM16.0071 4.16405H19.3311V4.70405H16.0071V4.16405ZM13.9551 0.68405C14.4751 0.68405 14.9391 0.79205 15.3471 1.00805C15.7551 1.21605 16.0751 1.50805 16.3071 1.88405C16.5471 2.25205 16.6671 2.68405 16.6671 3.18005C16.6671 3.67605 16.5471 4.11205 16.3071 4.48805C16.0751 4.85605 15.7551 5.14805 15.3471 5.36405C14.9391 5.57205 14.4751 5.67605 13.9551 5.67605C13.4351 5.67605 12.9711 5.57205 12.5631 5.36405C12.1551 5.14805 11.8311 4.85605 11.5911 4.48805C11.3591 4.11205 11.2431 3.67605 11.2431 3.18005C11.2431 2.68405 11.3591 2.25205 11.5911 1.88405C11.8311 1.50805 12.1551 1.21605 12.5631 1.00805C12.9711 0.79205 13.4351 0.68405 13.9551 0.68405ZM13.9551 1.23605C13.5551 1.23605 13.1951 1.32405 12.8751 1.50005C12.5631 1.66805 12.3151 1.89605 12.1311 2.18405C11.9471 2.47205 11.8551 2.80405 11.8551 3.18005C11.8551 3.54805 11.9471 3.88005 12.1311 4.17605C12.3151 4.46405 12.5631 4.69205 12.8751 4.86005C13.1951 5.02805 13.5551 5.11205 13.9551 5.11205C14.3551 5.11205 14.7111 5.02805 15.0231 4.86005C15.3431 4.69205 15.5911 4.46405 15.7671 4.17605C15.9511 3.88005 16.0431 3.54805 16.0431 3.18005C16.0431 2.80405 15.9511 2.47205 15.7671 2.18405C15.5911 1.89605 15.3431 1.66805 15.0231 1.50005C14.7111 1.32405 14.3551 1.23605 13.9551 1.23605ZM19.1151 0.0120502H19.7631V6.38405H19.1151V0.0120502ZM16.3071 6.64805C17.0351 6.64805 17.6591 6.72805 18.1791 6.88805C18.6991 7.04805 19.0991 7.27605 19.3791 7.57205C19.6671 7.86805 19.8111 8.22805 19.8111 8.65205C19.8111 9.08405 19.6671 9.44805 19.3791 9.74405C19.0991 10.0401 18.6991 10.2681 18.1791 10.4281C17.6591 10.5881 17.0351 10.6681 16.3071 10.6681C15.5791 10.6681 14.9551 10.5881 14.4351 10.4281C13.9151 10.2681 13.5111 10.0401 13.2231 9.74405C12.9431 9.44805 12.8031 9.08405 12.8031 8.65205C12.8031 8.22805 12.9431 7.86805 13.2231 7.57205C13.5111 7.27605 13.9151 7.04805 14.4351 6.88805C14.9551 6.72805 15.5791 6.64805 16.3071 6.64805ZM16.3071 7.17605C15.7231 7.17605 15.2151 7.23605 14.7831 7.35605C14.3591 7.47605 14.0271 7.64805 13.7871 7.87205C13.5471 8.08805 13.4271 8.34805 13.4271 8.65205C13.4271 8.95605 13.5471 9.22005 13.7871 9.44405C14.0271 9.66805 14.3591 9.84005 14.7831 9.96005C15.2151 10.0801 15.7231 10.1401 16.3071 10.1401C16.8911 10.1401 17.3951 10.0801 17.8191 9.96005C18.2511 9.84005 18.5831 9.66805 18.8151 9.44405C19.0551 9.22005 19.1751 8.95605 19.1751 8.65205C19.1751 8.34805 19.0551 8.08805 18.8151 7.87205C18.5831 7.64805 18.2511 7.47605 17.8191 7.35605C17.3951 7.23605 16.8911 7.17605 16.3071 7.17605ZM25.0421 0.99605H25.5821V3.13205C25.5821 3.70005 25.4941 4.25605 25.3181 4.80005C25.1501 5.33605 24.9181 5.84005 24.6221 6.31205C24.3261 6.78405 23.9941 7.20005 23.6261 7.56005C23.2581 7.92005 22.8821 8.20405 22.4981 8.41205L22.0781 7.88405C22.4381 7.70805 22.7941 7.45605 23.1461 7.12805C23.4981 6.79205 23.8141 6.41205 24.0941 5.98805C24.3821 5.55605 24.6101 5.09605 24.7781 4.60805C24.9541 4.12005 25.0421 3.62805 25.0421 3.13205V0.99605ZM25.1261 0.99605H25.6661V3.13205C25.6661 3.62005 25.7501 4.10005 25.9181 4.57205C26.0941 5.03605 26.3261 5.48005 26.6141 5.90405C26.9021 6.32005 27.2221 6.68405 27.5741 6.99605C27.9261 7.30805 28.2821 7.55205 28.6421 7.72805L28.2341 8.23205C27.8581 8.04005 27.4861 7.77205 27.1181 7.42805C26.7501 7.07605 26.4141 6.67205 26.1101 6.21605C25.8141 5.76005 25.5741 5.27205 25.3901 4.75205C25.2141 4.22405 25.1261 3.68405 25.1261 3.13205V0.99605ZM30.1301 5.03063e-05H30.7661V10.7161H30.1301V5.03063e-05ZM40.7252 0.0120502H41.3612V7.92005H40.7252V0.0120502ZM41.1332 3.40805H43.0412V3.96005H41.1332V3.40805ZM37.8332 0.85205H38.5052C38.5052 1.74805 38.2932 2.56805 37.8692 3.31205C37.4532 4.04805 36.8692 4.69605 36.1172 5.25605C35.3652 5.80805 34.4852 6.25205 33.4772 6.58805L33.2012 6.04805C34.1212 5.74405 34.9252 5.35205 35.6132 4.87205C36.3092 4.38405 36.8532 3.82005 37.2452 3.18005C37.6372 2.54005 37.8332 1.84005 37.8332 1.08005V0.85205ZM33.6212 0.85205H38.1332V1.40405H33.6212V0.85205ZM34.8452 9.88805H41.9012V10.4401H34.8452V9.88805ZM34.8452 7.11605H35.4812V10.0801H34.8452V7.11605ZM47.5432 8.72405H57.2512V9.27605H47.5432V8.72405ZM52.0552 5.98805H52.6912V8.91605H52.0552V5.98805ZM48.7552 0.804051H49.3912V2.88005H55.3912V0.804051H56.0152V6.21605H48.7552V0.804051ZM49.3912 3.43205V5.67605H55.3912V3.43205H49.3912ZM66.6463 0.0120502H67.2703V10.7041H66.6463V0.0120502ZM63.5143 1.18805H64.1503C64.1503 1.93205 64.0503 2.65605 63.8503 3.36005C63.6503 4.06405 63.3423 4.73605 62.9263 5.37605C62.5183 6.01605 61.9983 6.60805 61.3663 7.15205C60.7423 7.69605 59.9983 8.17605 59.1343 8.59205L58.7863 8.07605C59.8263 7.57205 60.6943 6.97205 61.3903 6.27605C62.0943 5.57205 62.6223 4.80005 62.9743 3.96005C63.3343 3.11205 63.5143 2.21605 63.5143 1.27205V1.18805ZM59.2303 1.18805H63.7543V1.72805H59.2303V1.18805ZM82.048 6.64751L77.1048 9.60063V9.02108L81.4514 6.4387L81.4046 6.5154V6.37052L81.4514 6.44722L77.1048 3.86483V3.28529L82.048 6.23841V6.64751Z" fill="#373737"/>
</svg>
