<svg width="14" height="14" viewBox="0 0 14 14" fill="none" xmlns="http://www.w3.org/2000/svg">
<path d="M10.6667 13.3333H3.33333V4.66667L8 0L8.83333 0.833333C8.91111 0.911111 8.975 1.01667 9.025 1.15C9.075 1.28333 9.1 1.41111 9.1 1.53333V1.76667L8.36667 4.66667H12.6667C13.0222 4.66667 13.3333 4.8 13.6 5.06667C13.8667 5.33333 14 5.64444 14 6V7.33333C14 7.41111 13.9889 7.49444 13.9667 7.58333C13.9444 7.67222 13.9222 7.75556 13.9 7.83333L11.9 12.5333C11.8 12.7556 11.6333 12.9444 11.4 13.1C11.1667 13.2556 10.9222 13.3333 10.6667 13.3333ZM4.66667 12H10.6667L12.6667 7.33333V6H6.66667L7.56667 2.33333L4.66667 5.23333V12ZM3.33333 4.66667V6H1.33333V12H3.33333V13.3333H0V4.66667H3.33333Z" fill="#5542FD"/>
</svg>
