<svg width="16" height="16" viewBox="0 0 16 16" fill="none" xmlns="http://www.w3.org/2000/svg">
<path d="M4.00002 2H11.3334V10.6667L6.66669 15.3333L5.83335 14.5C5.75558 14.4222 5.69169 14.3167 5.64169 14.1833C5.59169 14.05 5.56669 13.9222 5.56669 13.8V13.5667L6.30002 10.6667H2.00002C1.64446 10.6667 1.33335 10.5333 1.06669 10.2667C0.80002 10 0.666687 9.68889 0.666687 9.33333V8C0.666687 7.92222 0.677798 7.83889 0.70002 7.75C0.722243 7.66111 0.744465 7.57778 0.766687 7.5L2.76669 2.8C2.86669 2.57778 3.03335 2.38889 3.26669 2.23333C3.50002 2.07778 3.74446 2 4.00002 2ZM10 3.33333H4.00002L2.00002 8V9.33333H8.00002L7.10002 13L10 10.1V3.33333ZM11.3334 10.6667V9.33333H13.3334V3.33333H11.3334V2H14.6667V10.6667H11.3334Z" fill="#5542FD"/>
</svg>
