<svg width="28" height="28" viewBox="0 0 28 28" fill="none" xmlns="http://www.w3.org/2000/svg">
<path d="M24.5 24.0334C24.3444 24.0334 24.1986 24.0042 24.0625 23.9459C23.9264 23.8875 23.8 23.8 23.6833 23.6834L21 21H9.33331C8.69165 21 8.14234 20.7716 7.6854 20.3146C7.22845 19.8577 6.99998 19.3084 6.99998 18.6667V17.5H19.8333C20.475 17.5 21.0243 17.2716 21.4812 16.8146C21.9382 16.3577 22.1666 15.8084 22.1666 15.1667V7.00004H23.3333C23.975 7.00004 24.5243 7.22851 24.9812 7.68546C25.4382 8.1424 25.6666 8.69171 25.6666 9.33337V22.8375C25.6666 23.1875 25.55 23.4743 25.3166 23.698C25.0833 23.9216 24.8111 24.0334 24.5 24.0334ZM4.66665 14.2042L6.03748 12.8334H17.5V4.66671H4.66665V14.2042ZM3.49998 18.2C3.18887 18.2 2.91665 18.0882 2.68331 17.8646C2.44998 17.641 2.33331 17.3542 2.33331 17.0042V4.66671C2.33331 4.02504 2.56179 3.47574 3.01873 3.01879C3.47567 2.56185 4.02498 2.33337 4.66665 2.33337H17.5C18.1416 2.33337 18.691 2.56185 19.1479 3.01879C19.6048 3.47574 19.8333 4.02504 19.8333 4.66671V12.8334C19.8333 13.475 19.6048 14.0243 19.1479 14.4813C18.691 14.9382 18.1416 15.1667 17.5 15.1667H6.99998L4.31665 17.85C4.19998 17.9667 4.07359 18.0542 3.93748 18.1125C3.80137 18.1709 3.65554 18.2 3.49998 18.2Z" fill="#959595"/>
</svg>
