<svg width="28" height="28" viewBox="0 0 28 28" fill="none" xmlns="http://www.w3.org/2000/svg">
<path d="M9.33335 15.1667H18.6667V12.8334H9.33335V15.1667ZM9.33335 18.6667H18.6667V16.3334H9.33335V18.6667ZM9.33335 22.1667H15.1667V19.8334H9.33335V22.1667ZM7.00002 25.6667C6.35835 25.6667 5.80905 25.4382 5.3521 24.9813C4.89516 24.5243 4.66669 23.975 4.66669 23.3334V4.66671C4.66669 4.02504 4.89516 3.47574 5.3521 3.01879C5.80905 2.56185 6.35835 2.33337 7.00002 2.33337H16.3334L23.3334 9.33337V23.3334C23.3334 23.975 23.1049 24.5243 22.6479 24.9813C22.191 25.4382 21.6417 25.6667 21 25.6667H7.00002ZM15.1667 10.5V4.66671H7.00002V23.3334H21V10.5H15.1667Z" fill="#959595"/>
</svg>
